<?xml version="1.0" standalone="no"?>
<?xml-stylesheet href='../stylesheets/logo.css' type='text/css' ?>
<!DOCTYPE svg PUBLIC "-//W3C//DTD SVG 20010904//EN"
 "http://www.w3.org/TR/2001/REC-SVG-20010904/DTD/svg10.dtd">
<svg id="svg" version="1.1" width="763" height="624" viewBox="0 0 400 340" xmlns="http://www.w3.org/2000/svg" xmlns:xlink="http://www.w3.org/1999/xlink" stroke='white' style="display: block;"><g id="svgg"><path id="path2" d="M197.420 0.591 C 191.628 1.148,179.715 3.061,179.321 3.498 C 179.161 3.675,179.807 3.672,180.757 3.491 C 189.838 1.762,198.673 0.888,210.485 0.551 L 223.591 0.178 212.844 0.160 C 206.933 0.150,199.992 0.344,197.420 0.591 M230.664 1.312 C 237.900 2.147,246.559 3.702,252.879 5.301 C 255.147 5.875,257.108 6.239,257.237 6.109 C 258.064 5.283,236.486 1.238,229.069 0.829 C 224.303 0.566,224.364 0.585,230.664 1.312 M175.623 4.194 C 174.585 4.526,174.530 4.614,175.360 4.614 C 175.937 4.614,176.999 4.425,177.720 4.194 C 178.757 3.862,178.812 3.774,177.982 3.774 C 177.405 3.774,176.343 3.963,175.623 4.194 M164.638 7.135 C 161.336 8.149,158.270 9.217,157.823 9.509 C 157.173 9.934,157.220 9.973,158.060 9.702 C 158.637 9.516,161.822 8.548,165.138 7.550 C 172.194 5.427,172.463 5.331,171.429 5.308 C 170.996 5.298,167.941 6.120,164.638 7.135 M259.502 7.077 C 260.511 7.466,261.691 7.784,262.123 7.784 C 262.556 7.784,262.084 7.466,261.075 7.077 C 260.066 6.689,258.886 6.371,258.453 6.371 C 258.021 6.371,258.493 6.689,259.502 7.077 M268.414 9.872 C 268.847 10.139,269.790 10.516,270.511 10.709 C 271.422 10.952,271.582 10.911,271.035 10.573 C 270.603 10.306,269.659 9.930,268.938 9.737 C 268.028 9.493,267.868 9.535,268.414 9.872 M154.391 10.765 C 153.080 11.397,153.036 11.470,154.128 11.203 C 155.614 10.840,157.284 9.989,156.488 10.000 C 156.199 10.005,155.256 10.349,154.391 10.765 M147.837 13.368 C 147.117 13.780,146.763 14.117,147.051 14.117 C 147.339 14.117,148.165 13.780,148.886 13.368 C 149.607 12.956,149.961 12.619,149.672 12.619 C 149.384 12.619,148.558 12.956,147.837 13.368 M278.899 14.155 C 279.908 14.707,280.970 15.159,281.258 15.159 C 281.547 15.159,280.957 14.707,279.948 14.155 C 278.938 13.602,277.877 13.150,277.588 13.150 C 277.300 13.150,277.890 13.602,278.899 14.155 M139.318 17.332 C 136.507 18.762,134.207 20.049,134.207 20.193 C 134.207 20.428,144.640 15.373,145.173 14.881 C 145.956 14.156,143.729 15.089,139.318 17.332 M283.137 15.926 C 283.672 16.414,288.860 18.863,288.860 18.628 C 288.860 18.333,283.853 15.727,283.285 15.727 C 283.083 15.727,283.017 15.817,283.137 15.926 M290.433 19.638 C 290.433 19.782,291.376 20.381,292.529 20.970 C 293.683 21.558,294.626 21.922,294.626 21.778 C 294.626 21.633,293.683 21.034,292.529 20.446 C 291.376 19.857,290.433 19.494,290.433 19.638 M131.979 21.270 C 130.019 22.333,130.138 22.776,132.110 21.756 C 132.975 21.309,133.683 20.831,133.683 20.694 C 133.683 20.357,133.627 20.376,131.979 21.270 M298.558 24.387 C 299.135 24.856,300.079 25.472,300.655 25.755 L 301.704 26.270 300.655 25.416 C 300.079 24.947,299.135 24.331,298.558 24.048 L 297.510 23.533 298.558 24.387 M125.426 25.224 C 123.639 26.369,123.061 27.137,124.640 26.269 C 125.842 25.608,127.727 24.151,127.392 24.141 C 127.248 24.137,126.363 24.624,125.426 25.224 M118.218 30.190 L 116.645 31.541 118.349 30.414 C 119.286 29.794,120.052 29.185,120.052 29.060 C 120.052 28.668,119.830 28.804,118.218 30.190 M306.684 29.549 C 306.684 29.693,307.392 30.315,308.257 30.931 C 309.122 31.546,309.830 31.932,309.830 31.788 C 309.830 31.644,309.122 31.022,308.257 30.406 C 307.392 29.790,306.684 29.404,306.684 29.549 M103.506 42.071 L 101.966 43.775 103.670 42.235 C 104.607 41.388,105.374 40.621,105.374 40.531 C 105.374 40.126,104.941 40.483,103.506 42.071 M328.178 47.969 C 331.774 51.573,334.834 54.522,334.978 54.522 C 335.122 54.522,332.298 51.573,328.702 47.969 C 325.107 44.364,322.047 41.415,321.903 41.415 C 321.759 41.415,324.583 44.364,328.178 47.969 M283.177 77.129 C 279.932 77.899,280.806 78.255,284.170 77.533 C 286.844 76.960,294.837 77.135,297.772 77.831 L 299.083 78.142 297.772 77.537 C 296.024 76.729,286.038 76.450,283.177 77.129 M276.147 79.721 C 275.066 80.292,274.181 80.876,274.181 81.019 C 274.181 81.253,278.322 79.318,278.855 78.835 C 279.459 78.289,277.884 78.804,276.147 79.721 M300.961 78.835 C 301.497 79.320,305.636 81.252,305.636 81.017 C 305.636 80.719,301.679 78.637,301.113 78.637 C 300.909 78.637,300.841 78.726,300.961 78.835 M321.887 114.497 C 321.887 114.642,322.949 115.490,324.246 116.383 C 325.544 117.275,326.606 117.888,326.606 117.744 C 326.606 117.600,325.544 116.751,324.246 115.858 C 322.949 114.966,321.887 114.353,321.887 114.497 M328.702 119.195 C 328.702 119.339,329.410 119.961,330.275 120.577 C 331.140 121.193,331.848 121.579,331.848 121.434 C 331.848 121.290,331.140 120.668,330.275 120.052 C 329.410 119.436,328.702 119.050,328.702 119.195 M114.548 120.546 C 117.720 120.763,121.022 121.100,121.887 121.295 C 123.406 121.637,123.415 121.628,122.149 121.044 C 121.429 120.711,118.126 120.374,114.810 120.295 L 108.781 120.152 114.548 120.546 M104.923 121.178 C 103.954 121.457,103.255 121.778,103.368 121.892 C 103.482 122.005,104.746 121.777,106.178 121.384 C 107.610 120.992,108.309 120.671,107.733 120.671 C 107.156 120.671,105.892 120.899,104.923 121.178 M123.722 121.744 C 124.176 122.176,130.013 124.724,130.013 124.490 C 130.013 124.180,126.358 122.367,124.771 121.889 C 124.050 121.672,123.578 121.607,123.722 121.744 M99.476 123.494 C 98.106 124.207,96.986 124.908,96.986 125.052 C 96.986 125.286,102.175 122.834,102.709 122.348 C 103.358 121.757,101.652 122.362,99.476 123.494 M333.945 122.864 C 333.945 123.009,334.653 123.630,335.518 124.246 C 336.383 124.862,337.090 125.248,337.090 125.104 C 337.090 124.960,336.383 124.338,335.518 123.722 C 334.653 123.106,333.945 122.720,333.945 122.864 M339.187 126.555 C 339.187 126.699,340.249 127.548,341.547 128.440 C 342.844 129.333,343.906 129.946,343.906 129.801 C 343.906 129.657,342.844 128.809,341.547 127.916 C 340.249 127.023,339.187 126.411,339.187 126.555 M91.743 129.227 C 90.470 130.524,89.546 131.586,89.690 131.586 C 89.834 131.586,90.994 130.524,92.267 129.227 C 93.541 127.929,94.465 126.868,94.321 126.868 C 94.176 126.868,93.017 127.929,91.743 129.227 M135.780 129.227 C 136.758 130.236,137.676 131.062,137.820 131.062 C 137.965 131.062,137.282 130.236,136.304 129.227 C 135.326 128.218,134.408 127.392,134.264 127.392 C 134.119 127.392,134.802 128.218,135.780 129.227 M344.430 130.225 C 344.430 130.369,345.491 131.217,346.789 132.110 C 348.087 133.003,349.148 133.615,349.148 133.471 C 349.148 133.327,348.087 132.479,346.789 131.586 C 345.491 130.693,344.430 130.081,344.430 130.225 M302.490 134.469 C 301.769 134.881,301.415 135.218,301.704 135.218 C 301.992 135.218,302.818 134.881,303.539 134.469 C 304.260 134.057,304.613 133.720,304.325 133.720 C 304.037 133.720,303.211 134.057,302.490 134.469 M351.245 134.922 C 351.245 135.066,351.953 135.688,352.818 136.304 C 353.683 136.920,354.391 137.306,354.391 137.162 C 354.391 137.018,353.683 136.396,352.818 135.780 C 351.953 135.164,351.245 134.778,351.245 134.922 M297.772 136.112 C 296.474 136.525,293.290 137.059,290.695 137.298 C 286.456 137.688,286.296 137.739,289.122 137.796 C 292.398 137.861,298.665 136.752,300.258 135.824 C 301.499 135.101,300.621 135.203,297.772 136.112 M309.830 137.019 C 309.830 137.163,310.537 137.785,311.402 138.401 C 312.267 139.017,312.975 139.403,312.975 139.259 C 312.975 139.115,312.267 138.493,311.402 137.877 C 310.537 137.261,309.830 136.875,309.830 137.019 M356.488 138.592 C 356.488 138.736,357.195 139.358,358.060 139.974 C 358.925 140.590,359.633 140.976,359.633 140.832 C 359.633 140.687,358.925 140.065,358.060 139.450 C 357.195 138.834,356.488 138.448,356.488 138.592 M315.072 140.689 C 315.072 140.833,315.780 141.455,316.645 142.071 C 317.510 142.687,318.218 143.073,318.218 142.929 C 318.218 142.784,317.510 142.162,316.645 141.547 C 315.780 140.931,315.072 140.545,315.072 140.689 M361.730 142.283 C 361.730 142.427,362.792 143.275,364.089 144.168 C 365.387 145.060,366.448 145.673,366.448 145.529 C 366.448 145.385,365.387 144.536,364.089 143.644 C 362.792 142.751,361.730 142.138,361.730 142.283 M320.315 144.358 C 320.315 144.503,321.022 145.125,321.887 145.740 C 322.752 146.356,323.460 146.742,323.460 146.598 C 323.460 146.454,322.752 145.832,321.887 145.216 C 321.022 144.600,320.315 144.214,320.315 144.358 M368.545 146.980 C 368.545 147.124,369.253 147.746,370.118 148.362 C 370.983 148.978,371.691 149.364,371.691 149.219 C 371.691 149.075,370.983 148.453,370.118 147.837 C 369.253 147.222,368.545 146.836,368.545 146.980 M325.557 148.028 C 325.557 148.172,326.265 148.794,327.130 149.410 C 327.995 150.026,328.702 150.412,328.702 150.268 C 328.702 150.124,327.995 149.502,327.130 148.886 C 326.265 148.270,325.557 147.884,325.557 148.028 M330.799 151.698 C 330.799 151.842,331.507 152.464,332.372 153.080 C 333.237 153.696,333.945 154.082,333.945 153.938 C 333.945 153.794,333.237 153.172,332.372 152.556 C 331.507 151.940,330.799 151.554,330.799 151.698 M336.042 155.368 C 336.042 155.512,336.750 156.134,337.615 156.750 C 338.480 157.366,339.187 157.752,339.187 157.607 C 339.187 157.463,338.480 156.841,337.615 156.225 C 336.750 155.609,336.042 155.223,336.042 155.368 M341.284 159.037 C 341.284 159.182,341.992 159.803,342.857 160.419 C 343.722 161.035,344.430 161.421,344.430 161.277 C 344.430 161.133,343.722 160.511,342.857 159.895 C 341.992 159.279,341.284 158.893,341.284 159.037 M346.527 162.707 C 346.527 162.851,347.235 163.473,348.100 164.089 C 348.965 164.705,349.672 165.091,349.672 164.947 C 349.672 164.803,348.965 164.181,348.100 163.565 C 347.235 162.949,346.527 162.563,346.527 162.707 M151.507 165.836 C 151.507 165.980,152.451 166.845,153.604 167.759 C 154.758 168.672,155.701 169.302,155.701 169.158 C 155.701 169.013,154.758 168.148,153.604 167.235 C 152.451 166.321,151.507 165.692,151.507 165.836 M351.769 166.377 C 351.769 166.521,352.477 167.143,353.342 167.759 C 354.207 168.375,354.915 168.761,354.915 168.617 C 354.915 168.472,354.207 167.851,353.342 167.235 C 352.477 166.619,351.769 166.233,351.769 166.377 M357.012 170.047 C 357.012 170.191,357.720 170.813,358.585 171.429 C 359.450 172.045,360.157 172.431,360.157 172.286 C 360.157 172.142,359.450 171.520,358.585 170.904 C 357.720 170.288,357.012 169.902,357.012 170.047 M362.254 173.716 C 362.254 173.860,362.962 174.482,363.827 175.098 C 364.692 175.714,365.400 176.100,365.400 175.956 C 365.400 175.812,364.692 175.190,363.827 174.574 C 362.962 173.958,362.254 173.572,362.254 173.716 M367.497 177.386 C 367.497 177.530,368.204 178.152,369.069 178.768 C 369.934 179.384,370.642 179.770,370.642 179.626 C 370.642 179.482,369.934 178.860,369.069 178.244 C 368.204 177.628,367.497 177.242,367.497 177.386 M123.984 180.992 C 122.065 181.774,119.750 182.125,115.334 182.305 C 112.018 182.439,109.140 182.702,108.937 182.887 C 107.936 183.805,121.512 182.513,124.377 181.418 C 126.035 180.784,127.392 180.164,127.392 180.041 C 127.392 179.683,126.774 179.855,123.984 180.992 M170.904 181.039 C 170.904 181.183,171.848 182.049,173.001 182.962 C 174.155 183.875,175.098 184.505,175.098 184.361 C 175.098 184.217,174.155 183.351,173.001 182.438 C 171.848 181.524,170.904 180.895,170.904 181.039 M182.962 190.475 C 182.962 190.620,183.906 191.485,185.059 192.398 C 186.212 193.312,187.156 193.941,187.156 193.797 C 187.156 193.653,186.212 192.788,185.059 191.874 C 183.906 190.961,182.962 190.331,182.962 190.475 M145.216 193.097 C 145.216 193.241,146.160 194.106,147.313 195.020 C 148.467 195.933,149.410 196.563,149.410 196.418 C 149.410 196.274,148.467 195.409,147.313 194.495 C 146.160 193.582,145.216 192.953,145.216 193.097 M209.174 197.658 C 207.588 197.900,205.701 198.355,204.980 198.668 C 203.727 199.213,203.738 199.224,205.242 198.913 C 209.468 198.040,213.396 197.713,216.250 197.998 C 217.981 198.171,219.279 198.190,219.135 198.041 C 218.600 197.488,211.961 197.232,209.174 197.658 M200.336 200.274 C 197.543 201.541,197.221 201.549,195.847 200.393 C 194.759 199.477,194.759 199.477,195.756 200.655 C 196.305 201.304,197.042 201.835,197.393 201.835 C 198.180 201.835,203.874 199.281,203.145 199.255 C 202.857 199.245,201.593 199.703,200.336 200.274 M157.274 202.533 C 157.274 202.677,158.218 203.543,159.371 204.456 C 160.524 205.370,161.468 205.999,161.468 205.855 C 161.468 205.711,160.524 204.845,159.371 203.932 C 158.218 203.018,157.274 202.389,157.274 202.533 M169.332 211.970 C 169.332 212.114,170.275 212.979,171.429 213.893 C 172.582 214.806,173.526 215.435,173.526 215.291 C 173.526 215.147,172.582 214.282,171.429 213.368 C 170.275 212.455,169.332 211.825,169.332 211.970 M191.088 251.638 C 192.214 252.792,193.253 253.735,193.398 253.735 C 193.542 253.735,192.738 252.792,191.612 251.638 C 190.486 250.485,189.446 249.541,189.302 249.541 C 189.158 249.541,189.962 250.485,191.088 251.638 M232.842 253.709 C 231.875 254.536,229.752 255.936,228.124 256.819 C 226.496 257.703,225.414 258.432,225.719 258.440 C 226.563 258.461,232.331 254.896,233.802 253.444 C 235.563 251.707,235.002 251.861,232.842 253.709 M223.747 258.735 C 223.592 258.889,221.961 259.362,220.121 259.786 C 217.218 260.455,217.101 260.523,219.235 260.306 C 221.503 260.074,225.890 258.594,224.596 258.496 C 224.284 258.473,223.901 258.580,223.747 258.735 M205.505 259.836 C 206.802 260.251,209.869 260.687,212.320 260.805 L 216.776 261.019 212.502 260.561 C 210.151 260.309,207.320 259.852,206.211 259.544 C 203.275 258.728,202.738 258.951,205.505 259.836 M97.248 279.423 C 100.120 282.307,102.588 284.666,102.733 284.666 C 102.877 284.666,100.644 282.307,97.772 279.423 C 94.899 276.540,92.431 274.181,92.287 274.181 C 92.143 274.181,94.375 276.540,97.248 279.423 M103.801 285.354 C 103.801 285.444,104.567 286.211,105.505 287.058 L 107.208 288.598 105.669 286.894 C 104.233 285.306,103.801 284.949,103.801 285.354 M117.431 296.390 C 117.431 296.534,118.139 297.156,119.004 297.772 C 119.869 298.388,120.577 298.774,120.577 298.630 C 120.577 298.486,119.869 297.864,119.004 297.248 C 118.139 296.632,117.431 296.246,117.431 296.390 M125.033 301.713 C 125.609 302.183,126.553 302.799,127.130 303.082 L 128.178 303.597 127.130 302.743 C 126.553 302.273,125.609 301.657,125.033 301.374 L 123.984 300.860 125.033 301.713 M131.062 305.352 C 131.062 305.496,132.005 306.096,133.159 306.684 C 134.312 307.273,135.256 307.636,135.256 307.492 C 135.256 307.348,134.312 306.748,133.159 306.160 C 132.005 305.572,131.062 305.208,131.062 305.352 M135.780 307.992 C 135.780 308.343,143.183 312.038,143.417 311.804 C 143.521 311.699,141.846 310.743,139.693 309.678 C 137.541 308.613,135.780 307.854,135.780 307.992 M301.704 310.643 C 307.759 311.898,313.185 312.913,313.761 312.898 C 314.338 312.883,309.856 311.844,303.801 310.589 C 297.746 309.334,292.320 308.319,291.743 308.334 C 291.166 308.349,295.649 309.388,301.704 310.643 M280.996 312.189 C 279.699 312.884,278.873 313.452,279.161 313.452 C 279.450 313.452,280.747 312.884,282.045 312.189 C 283.342 311.494,284.168 310.925,283.879 310.925 C 283.591 310.925,282.294 311.494,280.996 312.189 M148.100 314.043 C 149.830 314.869,151.481 315.538,151.769 315.530 C 152.442 315.512,146.177 312.530,145.478 312.536 C 145.190 312.539,146.370 313.217,148.100 314.043 M276.278 314.286 C 275.557 314.698,275.203 315.035,275.491 315.035 C 275.780 315.035,276.606 314.698,277.326 314.286 C 278.047 313.874,278.401 313.536,278.113 313.536 C 277.824 313.536,276.999 313.874,276.278 314.286 M331.062 316.410 C 337.117 317.665,342.543 318.679,343.119 318.664 C 343.696 318.649,339.214 317.610,333.159 316.355 C 327.104 315.101,321.678 314.086,321.101 314.101 C 320.524 314.116,325.007 315.155,331.062 316.410 M153.080 316.032 C 153.512 316.299,154.456 316.676,155.177 316.869 C 156.088 317.112,156.248 317.071,155.701 316.733 C 155.269 316.466,154.325 316.090,153.604 315.897 C 152.693 315.653,152.533 315.694,153.080 316.032 M156.750 317.332 C 156.750 317.978,175.331 323.510,177.195 323.419 C 177.628 323.398,175.387 322.688,172.215 321.841 C 167.461 320.571,160.470 318.427,157.405 317.298 C 157.045 317.165,156.750 317.181,156.750 317.332 M355.177 321.129 C 359.790 322.095,364.037 322.873,364.613 322.858 C 365.190 322.843,361.887 322.040,357.274 321.073 C 352.661 320.107,348.414 319.328,347.837 319.344 C 347.261 319.359,350.564 320.162,355.177 321.129 M259.240 320.315 C 258.579 320.599,258.482 320.765,258.978 320.765 C 259.410 320.765,260.236 320.562,260.813 320.315 C 261.473 320.031,261.570 319.864,261.075 319.864 C 260.642 319.864,259.817 320.067,259.240 320.315 M255.570 321.363 C 254.909 321.647,254.812 321.814,255.308 321.814 C 255.740 321.814,256.566 321.611,257.143 321.363 C 257.804 321.079,257.901 320.912,257.405 320.912 C 256.972 320.912,256.147 321.115,255.570 321.363 M185.059 325.049 C 188.516 325.868,201.047 327.129,204.980 327.052 C 208.312 326.988,207.945 326.914,202.577 326.571 C 199.092 326.349,193.558 325.794,190.278 325.338 C 183.881 324.448,182.113 324.350,185.059 325.049 M238.008 325.033 C 236.239 325.405,236.230 325.419,237.746 325.426 C 238.611 325.430,240.026 325.253,240.891 325.033 C 243.067 324.479,240.638 324.479,238.008 325.033 M229.620 326.081 C 226.738 326.434,226.737 326.435,229.096 326.481 C 230.393 326.507,232.516 326.339,233.814 326.108 C 236.888 325.561,234.015 325.543,229.620 326.081 M218.468 326.984 C 219.399 327.100,221.050 327.102,222.138 326.988 C 223.225 326.875,222.464 326.780,220.446 326.778 C 218.427 326.775,217.537 326.868,218.468 326.984 " stroke="none" fill="#002c4f" fill-rule="evenodd"></path><path id="path3" d="M199.738 0.884 C 108.675 7.692,39.950 91.130,50.577 181.977 C 52.297 196.682,57.148 216.333,58.641 214.644 C 59.382 213.807,87.549 169.319,87.549 168.988 C 87.549 168.815,86.847 167.229,85.988 165.464 C 71.914 136.532,105.038 107.499,131.548 125.530 C 141.193 132.090,145.748 141.856,145.029 154.434 L 144.694 160.312 170.980 180.898 L 197.266 201.484 198.895 200.822 C 206.308 197.807,214.910 196.519,218.915 197.824 C 220.823 198.446,264.133 124.200,263.184 121.934 C 258.547 110.866,258.386 101.955,262.669 93.469 C 277.113 64.848,319.858 74.897,320.022 106.952 L 320.052 112.986 347.482 132.115 C 362.568 142.637,375.130 151.324,375.398 151.420 C 376.141 151.687,375.983 148.812,374.810 140.760 C 362.313 54.939,286.534 -5.605,199.738 0.884 M54.516 73.001 C 53.945 73.938,53.476 74.921,53.475 75.186 C 53.473 75.783,53.547 75.685,54.933 73.263 C 56.312 70.856,55.959 70.634,54.516 73.001 M301.966 135.126 C 298.027 136.876,292.403 137.986,288.473 137.787 L 285.203 137.622 263.160 175.102 C 248.293 200.382,241.195 212.923,241.355 213.630 C 241.485 214.207,242.234 216.330,243.018 218.349 C 247.183 229.068,244.521 242.103,236.396 250.771 C 216.498 272.003,182.363 258.094,182.191 228.685 L 182.154 222.246 155.105 201.064 L 128.057 179.882 124.710 181.251 C 121.946 182.382,120.290 182.662,115.205 182.856 L 109.046 183.091 91.124 211.205 C 81.266 226.667,72.623 240.342,71.917 241.593 L 70.632 243.867 71.839 246.049 C 82.342 265.033,103.114 286.888,123.309 300.204 C 170.837 331.543,232.990 335.561,284.317 310.614 L 289.996 307.853 332.481 316.203 C 355.848 320.796,375.078 324.441,375.215 324.304 C 375.352 324.168,370.273 307.231,363.928 286.667 L 352.393 249.279 354.200 246.134 C 361.926 232.689,367.574 218.874,371.344 204.194 C 373.522 195.716,375.617 183.522,374.998 182.938 C 374.598 182.560,312.239 138.879,307.208 135.452 L 304.849 133.845 301.966 135.126 M49.684 230.143 C 50.339 230.755,50.738 231.477,50.570 231.748 C 50.403 232.019,50.516 232.241,50.821 232.241 C 51.959 232.241,50.824 229.922,49.425 229.387 C 48.722 229.119,48.786 229.305,49.684 230.143 " stroke="none" fill="#3399ff" fill-rule="evenodd"></path></g></svg>